<?xml version="1.0" encoding="utf-8"?>
<!-- Generator: Adobe Illustrator 24.3.0, SVG Export Plug-In . SVG Version: 6.00 Build 0)  -->
<svg version="1.1" id="Capa_1" xmlns="http://www.w3.org/2000/svg" xmlns:xlink="http://www.w3.org/1999/xlink" x="0px" y="0px"
	 viewBox="0 0 16 16" style="enable-background:new 0 0 16 16;" xml:space="preserve">
<style type="text/css">
	.st0{fill:#FFFFFF;}
</style>
<path class="st0" d="M7.6,0.1C7.8,0,8.2,0,8.4,0.1c0,0,0,0,0,0L10.2,2H14c1.1,0,2,0.9,2,2v9c0,1.1-0.9,2-2,2H2c-1.1,0-2-0.9-2-2V4
	c0-1.1,0.9-2,2-2h3.8L7.6,0.1z M1,7v3h14V7H1z M15,6V4c0-0.6-0.4-1-1-1h-3.8C9.9,3,9.7,2.9,9.5,2.7L8,1.2L6.5,2.7
	C6.3,2.9,6.1,3,5.8,3H2C1.4,3,1,3.4,1,4v2H15z M15,11H1v2c0,0.6,0.4,1,1,1h12c0.6,0,1-0.4,1-1V11z M2,4.5C2,4.2,2.2,4,2.5,4h8
	C10.8,4,11,4.2,11,4.5S10.8,5,10.5,5h-8C2.2,5,2,4.8,2,4.5z M2,8.5C2,8.2,2.2,8,2.5,8h11C13.8,8,14,8.2,14,8.5S13.8,9,13.5,9h-11
	C2.2,9,2,8.8,2,8.5z M2,12.5C2,12.2,2.2,12,2.5,12h6C8.8,12,9,12.2,9,12.5S8.8,13,8.5,13h-6C2.2,13,2,12.8,2,12.5z"/>
</svg>
