<?xml version="1.0" encoding="utf-8"?>
<!-- Generator: Adobe Illustrator 24.3.0, SVG Export Plug-In . SVG Version: 6.00 Build 0)  -->
<svg version="1.1" id="Capa_1" xmlns="http://www.w3.org/2000/svg" xmlns:xlink="http://www.w3.org/1999/xlink" x="0px" y="0px"
	 viewBox="0 0 17.7 17.6" style="enable-background:new 0 0 17.7 17.6;" xml:space="preserve">
<style type="text/css">
	.st0{fill:#CB1810;}
	.st1{fill-rule:evenodd;clip-rule:evenodd;fill:#CB1810;}
</style>
<path class="st0" d="M16.7,2.2c0.2,0.2,0.2,0.6,0,0.8l-1.1,1.2l-2.2-2.2l1.1-1.2c0.2-0.2,0.6-0.2,0.8,0L16.7,2.2L16.7,2.2z
	 M14.8,4.9l-2.2-2.2l-7.4,7.5c-0.1,0.1-0.1,0.1-0.1,0.2l-0.9,2.7c0,0.1,0,0.3,0.2,0.3c0.1,0,0.1,0,0.2,0l2.6-0.9
	c0.1,0,0.2-0.1,0.2-0.1L14.8,4.9L14.8,4.9z"/>
<path class="st1" d="M0.9,14.9c0,0.9,0.7,1.7,1.6,1.7h12c0.9,0,1.6-0.7,1.6-1.7V8.3c0-0.3-0.2-0.6-0.5-0.6S15.1,8,15.1,8.3v6.6
	c0,0.3-0.2,0.6-0.5,0.6h-12c-0.3,0-0.5-0.2-0.5-0.6V2.8c0-0.3,0.2-0.6,0.5-0.6h7.1c0.3,0,0.5-0.2,0.5-0.6S9.9,1.2,9.6,1.2H2.5
	c-0.9,0-1.6,0.7-1.6,1.7V14.9z"/>
</svg>
